# xmcd
#
# Track frame offsets:
#	150
#	20476
#	35476
#	50326
#	65926
#	86326
#	107401
#	130426
#	141901
#	163801
#
# Disc length: 2367 seconds
#
# Revision: 1
# Processed by: cddbd v1.5.2PL0 Copyright (c) Steve Scherf et al.
# Submitted via: audiograbber 1.83.01
#
DISCID=8b093d0a
DTITLE=The Blues Collective - Blues Got a Hold On Me
DYEAR=1994
DGENRE=Blues
TTITLE0=Too Late - So Long
TTITLE1=Five Hundred Dollars And A Cadillac
TTITLE2=Tears Like Rain
TTITLE3=I Feel Blue
TTITLE4=Blues Has Got A Hold On Me
TTITLE5=They Laughed At Me
TTITLE6=The Top Of The Hill
TTITLE7=Ain't Comming Back No More
TTITLE8=I Never Meant To Make You Sad
TTITLE9=Goodnight Blues
EXTD=
EXTT0=
EXTT1=
EXTT2=
EXTT3=
EXTT4=
EXTT5=
EXTT6=
EXTT7=
EXTT8=
EXTT9=
PLAYORDER=
